<svg width="254" height="106" viewBox="0 0 254 106" fill="none" xmlns="http://www.w3.org/2000/svg">
<path d="M0 20C0 8.9543 8.95431 0 20 0H234C245.046 0 254 8.95431 254 20V86C254 97.0457 245.046 106 234 106H20C8.95431 106 0 97.0457 0 86V20Z" fill="#9B9B9B"/>
<path d="M170.016 38.97L171.073 31.7894L166.224 26.6093L173.05 25.4465L176.241 19L179.403 25.462L186.224 26.6579L181.352 31.8144L182.377 39L176.204 35.7249L170.016 38.97L170.016 38.97Z" stroke="#F4F4F4"/>
<path d="M145.016 38.97L146.073 31.7894L141.224 26.6093L148.05 25.4465L151.241 19L154.403 25.462L161.224 26.6579L156.352 31.8144L157.377 39L151.204 35.7249L145.016 38.97L145.016 38.97Z" stroke="#F4F4F4"/>
<path d="M120.016 38.97L121.073 31.7894L116.224 26.6093L123.05 25.4465L126.241 19L129.403 25.462L136.224 26.6579L131.352 31.8144L132.377 39L126.204 35.7249L120.016 38.97L120.016 38.97Z" stroke="#F4F4F4"/>
<path d="M95.0164 38.97L96.0733 31.7894L91.2239 26.6093L98.0503 25.4465L101.241 19L104.403 25.462L111.224 26.6579L106.352 31.8144L107.377 39L101.204 35.7249L95.0164 38.97L95.0164 38.97Z" stroke="#F4F4F4"/>
<path d="M70.0164 38.97L71.0733 31.7894L66.2239 26.6093L73.0503 25.4465L76.2407 19L79.4027 25.462L86.2239 26.6579L81.3518 31.8144L82.3771 39L76.2039 35.7249L70.0164 38.97L70.0164 38.97Z" stroke="#F4F4F4"/>
<path d="M37 69C37 63.4772 41.4772 59 47 59H207C212.523 59 217 63.4772 217 69V77C217 82.5228 212.523 87 207 87H47C41.4772 87 37 82.5228 37 77V69Z" fill="#F0A500"/>
<path d="M95.5345 78.5734C94.5545 78.5734 93.6679 78.3588 92.8745 77.9294C92.0905 77.4908 91.4745 76.8934 91.0265 76.1374C90.5785 75.3721 90.3545 74.5134 90.3545 73.5614C90.3545 72.6094 90.5785 71.7554 91.0265 70.9994C91.4745 70.2341 92.0952 69.6368 92.8885 69.2074C93.6819 68.7688 94.5685 68.5494 95.5485 68.5494C96.3139 68.5494 97.0139 68.6801 97.6485 68.9414C98.2832 69.1934 98.8245 69.5714 99.2725 70.0754L98.3625 70.9574C97.6252 70.1828 96.7059 69.7954 95.6045 69.7954C94.8765 69.7954 94.2185 69.9588 93.6305 70.2854C93.0425 70.6121 92.5805 71.0648 92.2445 71.6434C91.9179 72.2128 91.7545 72.8521 91.7545 73.5614C91.7545 74.2708 91.9179 74.9148 92.2445 75.4934C92.5805 76.0628 93.0425 76.5108 93.6305 76.8374C94.2185 77.1641 94.8765 77.3274 95.6045 77.3274C96.6965 77.3274 97.6159 76.9354 98.3625 76.1514L99.2725 77.0334C98.8245 77.5374 98.2785 77.9201 97.6345 78.1814C96.9999 78.4428 96.2999 78.5734 95.5345 78.5734ZM103.937 78.5454C103.2 78.5454 102.537 78.3821 101.949 78.0554C101.361 77.7288 100.899 77.2808 100.563 76.7114C100.237 76.1328 100.073 75.4794 100.073 74.7514C100.073 74.0234 100.237 73.3748 100.563 72.8054C100.899 72.2268 101.361 71.7788 101.949 71.4614C102.537 71.1348 103.2 70.9714 103.937 70.9714C104.675 70.9714 105.333 71.1348 105.911 71.4614C106.499 71.7788 106.957 72.2268 107.283 72.8054C107.619 73.3748 107.787 74.0234 107.787 74.7514C107.787 75.4794 107.619 76.1328 107.283 76.7114C106.957 77.2808 106.499 77.7288 105.911 78.0554C105.333 78.3821 104.675 78.5454 103.937 78.5454ZM103.937 77.3694C104.413 77.3694 104.838 77.2621 105.211 77.0474C105.594 76.8234 105.893 76.5154 106.107 76.1234C106.322 75.7221 106.429 75.2648 106.429 74.7514C106.429 74.2381 106.322 73.7854 106.107 73.3934C105.893 72.9921 105.594 72.6841 105.211 72.4694C104.838 72.2548 104.413 72.1474 103.937 72.1474C103.461 72.1474 103.032 72.2548 102.649 72.4694C102.276 72.6841 101.977 72.9921 101.753 73.3934C101.539 73.7854 101.431 74.2381 101.431 74.7514C101.431 75.2648 101.539 75.7221 101.753 76.1234C101.977 76.5154 102.276 76.8234 102.649 77.0474C103.032 77.2621 103.461 77.3694 103.937 77.3694ZM118.928 70.9714C119.861 70.9714 120.599 71.2421 121.14 71.7834C121.691 72.3248 121.966 73.1274 121.966 74.1914V78.4614H120.622V74.3454C120.622 73.6268 120.454 73.0854 120.118 72.7214C119.791 72.3574 119.32 72.1754 118.704 72.1754C118.023 72.1754 117.481 72.3901 117.08 72.8194C116.679 73.2394 116.478 73.8461 116.478 74.6394V78.4614H115.134V74.3454C115.134 73.6268 114.966 73.0854 114.63 72.7214C114.303 72.3574 113.832 72.1754 113.216 72.1754C112.535 72.1754 111.993 72.3901 111.592 72.8194C111.191 73.2394 110.99 73.8461 110.99 74.6394V78.4614H109.646V71.0414H110.934V72.1474C111.205 71.7648 111.559 71.4754 111.998 71.2794C112.437 71.0741 112.936 70.9714 113.496 70.9714C114.075 70.9714 114.588 71.0881 115.036 71.3214C115.484 71.5548 115.829 71.8954 116.072 72.3434C116.352 71.9141 116.739 71.5781 117.234 71.3354C117.738 71.0928 118.303 70.9714 118.928 70.9714ZM131.186 74.7934C131.186 74.8961 131.177 75.0314 131.158 75.1994H125.138C125.222 75.8528 125.507 76.3801 125.992 76.7814C126.487 77.1734 127.098 77.3694 127.826 77.3694C128.713 77.3694 129.427 77.0708 129.968 76.4734L130.71 77.3414C130.374 77.7334 129.954 78.0321 129.45 78.2374C128.955 78.4428 128.4 78.5454 127.784 78.5454C127 78.5454 126.305 78.3868 125.698 78.0694C125.091 77.7428 124.62 77.2901 124.284 76.7114C123.957 76.1328 123.794 75.4794 123.794 74.7514C123.794 74.0328 123.953 73.3841 124.27 72.8054C124.597 72.2268 125.04 71.7788 125.6 71.4614C126.169 71.1348 126.809 70.9714 127.518 70.9714C128.227 70.9714 128.857 71.1348 129.408 71.4614C129.968 71.7788 130.402 72.2268 130.71 72.8054C131.027 73.3841 131.186 74.0468 131.186 74.7934ZM127.518 72.1054C126.874 72.1054 126.333 72.3014 125.894 72.6934C125.465 73.0854 125.213 73.5988 125.138 74.2334H129.898C129.823 73.6081 129.567 73.0994 129.128 72.7074C128.699 72.3061 128.162 72.1054 127.518 72.1054ZM137.014 70.9714C137.957 70.9714 138.704 71.2468 139.254 71.7974C139.814 72.3388 140.094 73.1368 140.094 74.1914V78.4614H138.75V74.3454C138.75 73.6268 138.578 73.0854 138.232 72.7214C137.887 72.3574 137.392 72.1754 136.748 72.1754C136.02 72.1754 135.446 72.3901 135.026 72.8194C134.606 73.2394 134.396 73.8461 134.396 74.6394V78.4614H133.052V71.0414H134.34V72.1614C134.611 71.7788 134.975 71.4848 135.432 71.2794C135.899 71.0741 136.426 70.9714 137.014 70.9714ZM146.754 78.0274C146.558 78.1954 146.315 78.3261 146.026 78.4194C145.736 78.5034 145.438 78.5454 145.13 78.5454C144.383 78.5454 143.804 78.3448 143.394 77.9434C142.983 77.5421 142.778 76.9681 142.778 76.2214V72.1474H141.518V71.0414H142.778V69.4174H144.122V71.0414H146.25V72.1474H144.122V76.1654C144.122 76.5668 144.22 76.8748 144.416 77.0894C144.621 77.3041 144.91 77.4114 145.284 77.4114C145.694 77.4114 146.044 77.2948 146.334 77.0614L146.754 78.0274ZM151.08 70.9714C152.107 70.9714 152.891 71.2234 153.432 71.7274C153.983 72.2314 154.258 72.9828 154.258 73.9814V78.4614H152.984V77.4814C152.76 77.8268 152.438 78.0928 152.018 78.2794C151.608 78.4568 151.118 78.5454 150.548 78.5454C149.718 78.5454 149.05 78.3448 148.546 77.9434C148.052 77.5421 147.804 77.0148 147.804 76.3614C147.804 75.7081 148.042 75.1854 148.518 74.7934C148.994 74.3921 149.75 74.1914 150.786 74.1914H152.914V73.9254C152.914 73.3468 152.746 72.9034 152.41 72.5954C152.074 72.2874 151.58 72.1334 150.926 72.1334C150.488 72.1334 150.058 72.2081 149.638 72.3574C149.218 72.4974 148.864 72.6888 148.574 72.9314L148.014 71.9234C148.397 71.6154 148.854 71.3821 149.386 71.2234C149.918 71.0554 150.483 70.9714 151.08 70.9714ZM150.772 77.5094C151.286 77.5094 151.729 77.3974 152.102 77.1734C152.476 76.9401 152.746 76.6134 152.914 76.1934V75.1574H150.842C149.704 75.1574 149.134 75.5401 149.134 76.3054C149.134 76.6788 149.279 76.9728 149.568 77.1874C149.858 77.4021 150.259 77.5094 150.772 77.5094ZM158.034 72.2874C158.267 71.8581 158.612 71.5314 159.07 71.3074C159.527 71.0834 160.082 70.9714 160.736 70.9714V72.2734C160.661 72.2641 160.558 72.2594 160.428 72.2594C159.7 72.2594 159.126 72.4788 158.706 72.9174C158.295 73.3468 158.09 73.9628 158.09 74.7654V78.4614H156.746V71.0414H158.034V72.2874Z" fill="#F4F4F4"/>
</svg>
