<svg width="24" height="24" viewBox="0 0 24 24" fill="none" xmlns="http://www.w3.org/2000/svg">
<g clip-path="url(#clip0)">
<path d="M23.7498 6.24102C23.7493 6.24051 23.7488 6.24001 23.7483 6.23946L23.7474 6.24031L20.3189 2.81182C19.9784 2.48297 19.4358 2.49241 19.107 2.83291C18.7861 3.16508 18.7861 3.69166 19.107 4.02382L21.0732 5.99006H16.2853C12.9733 5.99382 10.2893 8.67783 10.2855 11.9899C10.2827 14.3556 8.36561 16.2727 5.99991 16.2755H0.857187C0.383745 16.2755 0 16.6592 0 17.1326C0 17.606 0.383745 17.9898 0.857137 17.9898H5.99986C9.31189 17.986 11.9959 15.302 11.9997 11.9899C12.0025 9.62421 13.9196 7.70714 16.2853 7.70433H21.0731L19.1078 9.66971C18.7673 9.99856 18.7578 10.5412 19.0867 10.8817C19.4156 11.2222 19.9582 11.2316 20.2987 10.9027C20.3058 10.8958 20.3128 10.8888 20.3197 10.8817L23.7482 7.45317C24.0834 7.11884 24.0841 6.57615 23.7498 6.24102Z" fill="#F0A500"/>
<path d="M23.7498 16.5264C23.7493 16.5259 23.7488 16.5254 23.7483 16.5249L23.7474 16.5258L20.3189 13.0973C19.9784 12.7684 19.4358 12.7779 19.107 13.1184C18.7861 13.4505 18.7861 13.9771 19.107 14.3092L21.0732 16.2755H16.2853C15.2309 16.2762 14.2133 15.8877 13.4277 15.1844C13.0721 14.8719 12.5306 14.9069 12.2181 15.2624C11.9097 15.6134 11.9392 16.1466 12.2843 16.4614C13.3841 17.4465 14.8089 17.9908 16.2853 17.9897H21.0732L19.1078 19.9551C18.7673 20.2839 18.7579 20.8265 19.0867 21.167C19.4156 21.5075 19.9582 21.517 20.2987 21.1881C20.3058 21.1812 20.3128 21.1742 20.3198 21.167L23.7483 17.7385C24.0834 17.4043 24.0841 16.8616 23.7498 16.5264Z" fill="#F0A500"/>
<path d="M10.0009 7.5183C8.90111 6.53325 7.47627 5.989 5.99985 5.99005H0.857136C0.383745 5.99005 0 6.3738 0 6.84719C0 7.32058 0.383745 7.70432 0.857136 7.70432H5.99985C7.05431 7.70357 8.0719 8.09209 8.85747 8.79544C9.21309 9.10792 9.75463 9.07292 10.0671 8.71735C10.3755 8.36635 10.346 7.83314 10.0009 7.5183Z" fill="#F0A500"/>
</g>
<defs>
<clipPath id="clip0">
<rect width="24" height="24" fill="white"/>
</clipPath>
</defs>
</svg>
