<svg width="30" height="30" viewBox="0 0 30 30" fill="none" xmlns="http://www.w3.org/2000/svg">
<rect width="30" height="30" fill="#F4F4F4"/>
<path d="M8.35904 19.08C7.93904 19.08 7.54904 18.9933 7.18904 18.82C6.82904 18.64 6.53904 18.39 6.31904 18.07L6.89904 17.39C7.28571 17.9433 7.77237 18.22 8.35904 18.22C8.75237 18.22 9.04904 18.1 9.24904 17.86C9.45571 17.62 9.55904 17.2667 9.55904 16.8V12.87H7.02904V12H10.549V16.75C10.549 17.5233 10.3624 18.1067 9.98904 18.5C9.62237 18.8867 9.07904 19.08 8.35904 19.08ZM14.716 19.06C14.1893 19.06 13.716 18.9433 13.296 18.71C12.876 18.4767 12.546 18.1567 12.306 17.75C12.0727 17.3367 11.956 16.87 11.956 16.35C11.956 15.83 12.0727 15.3667 12.306 14.96C12.546 14.5467 12.876 14.2267 13.296 14C13.716 13.7667 14.1893 13.65 14.716 13.65C15.2427 13.65 15.7127 13.7667 16.126 14C16.546 14.2267 16.8727 14.5467 17.106 14.96C17.346 15.3667 17.466 15.83 17.466 16.35C17.466 16.87 17.346 17.3367 17.106 17.75C16.8727 18.1567 16.546 18.4767 16.126 18.71C15.7127 18.9433 15.2427 19.06 14.716 19.06ZM14.716 18.22C15.056 18.22 15.3593 18.1433 15.626 17.99C15.8993 17.83 16.1127 17.61 16.266 17.33C16.4193 17.0433 16.496 16.7167 16.496 16.35C16.496 15.9833 16.4193 15.66 16.266 15.38C16.1127 15.0933 15.8993 14.8733 15.626 14.72C15.3593 14.5667 15.056 14.49 14.716 14.49C14.376 14.49 14.0693 14.5667 13.796 14.72C13.5293 14.8733 13.316 15.0933 13.156 15.38C13.0027 15.66 12.926 15.9833 12.926 16.35C12.926 16.7167 13.0027 17.0433 13.156 17.33C13.316 17.61 13.5293 17.83 13.796 17.99C14.0693 18.1433 14.376 18.22 14.716 18.22ZM23.3372 13.7L20.7672 19.53C20.5405 20.07 20.2738 20.45 19.9672 20.67C19.6672 20.89 19.3038 21 18.8772 21C18.6172 21 18.3638 20.9567 18.1172 20.87C17.8772 20.79 17.6772 20.67 17.5172 20.51L17.9272 19.79C18.2005 20.05 18.5172 20.18 18.8772 20.18C19.1105 20.18 19.3038 20.1167 19.4572 19.99C19.6172 19.87 19.7605 19.66 19.8872 19.36L20.0572 18.99L17.7172 13.7H18.7172L20.5672 17.94L22.3972 13.7H23.3372Z" fill="#1A1C20"/>
</svg>
