<svg width="30" height="30" viewBox="0 0 30 30" fill="none" xmlns="http://www.w3.org/2000/svg">
<rect width="30" height="30" fill="#F0A500"/>
<path d="M12.9838 12L10.6438 19H9.59381L7.68381 13.41L5.77381 19H4.70381L2.36381 12H3.39381L5.28381 17.69L7.25381 12H8.17381L10.1038 17.72L12.0338 12H12.9838ZM15.5967 13.65C16.33 13.65 16.89 13.83 17.2767 14.19C17.67 14.55 17.8667 15.0867 17.8667 15.8V19H16.9567V18.3C16.7967 18.5467 16.5667 18.7367 16.2667 18.87C15.9734 18.9967 15.6234 19.06 15.2167 19.06C14.6234 19.06 14.1467 18.9167 13.7867 18.63C13.4334 18.3433 13.2567 17.9667 13.2567 17.5C13.2567 17.0333 13.4267 16.66 13.7667 16.38C14.1067 16.0933 14.6467 15.95 15.3867 15.95H16.9067V15.76C16.9067 15.3467 16.7867 15.03 16.5467 14.81C16.3067 14.59 15.9534 14.48 15.4867 14.48C15.1734 14.48 14.8667 14.5333 14.5667 14.64C14.2667 14.74 14.0134 14.8767 13.8067 15.05L13.4067 14.33C13.68 14.11 14.0067 13.9433 14.3867 13.83C14.7667 13.71 15.17 13.65 15.5967 13.65ZM15.3767 18.32C15.7434 18.32 16.06 18.24 16.3267 18.08C16.5934 17.9133 16.7867 17.68 16.9067 17.38V16.64H15.4267C14.6134 16.64 14.2067 16.9133 14.2067 17.46C14.2067 17.7267 14.31 17.9367 14.5167 18.09C14.7234 18.2433 15.01 18.32 15.3767 18.32ZM19.6433 11.58H20.6033V19H19.6433V11.58ZM24.4962 16.53L23.3962 17.55V19H22.4362V11.58H23.3962V16.34L26.2862 13.7H27.4462L25.2162 15.89L27.6662 19H26.4862L24.4962 16.53Z" fill="#1A1C20"/>
</svg>

