<svg width="30" height="30" viewBox="0 0 30 30" fill="none" xmlns="http://www.w3.org/2000/svg">
<rect width="30" height="30" fill="#F0A500"/>
<path d="M11.1826 19L11.1726 13.9L8.64258 18.15H8.18258L5.65258 13.93V19H4.69258V12H5.51258L8.43258 16.92L11.3126 12H12.1326L12.1426 19H11.1826ZM16.3734 19.06C15.8467 19.06 15.3734 18.9433 14.9534 18.71C14.5334 18.4767 14.2034 18.1567 13.9634 17.75C13.73 17.3367 13.6134 16.87 13.6134 16.35C13.6134 15.83 13.73 15.3667 13.9634 14.96C14.2034 14.5467 14.5334 14.2267 14.9534 14C15.3734 13.7667 15.8467 13.65 16.3734 13.65C16.9 13.65 17.37 13.7667 17.7834 14C18.2034 14.2267 18.53 14.5467 18.7634 14.96C19.0034 15.3667 19.1234 15.83 19.1234 16.35C19.1234 16.87 19.0034 17.3367 18.7634 17.75C18.53 18.1567 18.2034 18.4767 17.7834 18.71C17.37 18.9433 16.9 19.06 16.3734 19.06ZM16.3734 18.22C16.7134 18.22 17.0167 18.1433 17.2834 17.99C17.5567 17.83 17.77 17.61 17.9234 17.33C18.0767 17.0433 18.1534 16.7167 18.1534 16.35C18.1534 15.9833 18.0767 15.66 17.9234 15.38C17.77 15.0933 17.5567 14.8733 17.2834 14.72C17.0167 14.5667 16.7134 14.49 16.3734 14.49C16.0334 14.49 15.7267 14.5667 15.4534 14.72C15.1867 14.8733 14.9734 15.0933 14.8134 15.38C14.66 15.66 14.5834 15.9833 14.5834 16.35C14.5834 16.7167 14.66 17.0433 14.8134 17.33C14.9734 17.61 15.1867 17.83 15.4534 17.99C15.7267 18.1433 16.0334 18.22 16.3734 18.22ZM25.451 11.58V19H24.531V18.16C24.3177 18.4533 24.0477 18.6767 23.721 18.83C23.3943 18.9833 23.0343 19.06 22.641 19.06C22.1277 19.06 21.6677 18.9467 21.261 18.72C20.8543 18.4933 20.5343 18.1767 20.301 17.77C20.0743 17.3567 19.961 16.8833 19.961 16.35C19.961 15.8167 20.0743 15.3467 20.301 14.94C20.5343 14.5333 20.8543 14.2167 21.261 13.99C21.6677 13.7633 22.1277 13.65 22.641 13.65C23.021 13.65 23.371 13.7233 23.691 13.87C24.011 14.01 24.2777 14.22 24.491 14.5V11.58H25.451ZM22.721 18.22C23.0543 18.22 23.3577 18.1433 23.631 17.99C23.9043 17.83 24.1177 17.61 24.271 17.33C24.4243 17.0433 24.501 16.7167 24.501 16.35C24.501 15.9833 24.4243 15.66 24.271 15.38C24.1177 15.0933 23.9043 14.8733 23.631 14.72C23.3577 14.5667 23.0543 14.49 22.721 14.49C22.381 14.49 22.0743 14.5667 21.801 14.72C21.5343 14.8733 21.321 15.0933 21.161 15.38C21.0077 15.66 20.931 15.9833 20.931 16.35C20.931 16.7167 21.0077 17.0433 21.161 17.33C21.321 17.61 21.5343 17.83 21.801 17.99C22.0743 18.1433 22.381 18.22 22.721 18.22Z" fill="#1A1C20"/>
</svg>

