<svg width="30" height="30" viewBox="0 0 30 30" fill="#f0a500" xmlns="http://www.w3.org/2000/svg">
<rect width="30" height="30" fill="#f0a500"/>
<path d="M13.5958 18.13V19H8.51582V12H13.4558V12.87H9.51582V15.02H13.0258V15.87H9.51582V18.13H13.5958ZM22.3957 19.64C22.1691 19.9067 21.9057 20.11 21.6057 20.25C21.3057 20.39 20.9824 20.46 20.6357 20.46C20.1957 20.46 19.7824 20.3533 19.3957 20.14C19.0157 19.9333 18.5791 19.5767 18.0857 19.07C17.4257 19.0367 16.8291 18.86 16.2957 18.54C15.7691 18.22 15.3557 17.7967 15.0557 17.27C14.7624 16.7367 14.6157 16.1467 14.6157 15.5C14.6157 14.8267 14.7757 14.2167 15.0957 13.67C15.4224 13.1233 15.8691 12.6967 16.4357 12.39C17.0024 12.0767 17.6391 11.92 18.3457 11.92C19.0457 11.92 19.6791 12.0767 20.2457 12.39C20.8124 12.6967 21.2557 13.1233 21.5757 13.67C21.8957 14.21 22.0557 14.82 22.0557 15.5C22.0557 16.0733 21.9391 16.6 21.7057 17.08C21.4791 17.56 21.1557 17.9633 20.7357 18.29C20.3224 18.6167 19.8457 18.8433 19.3057 18.97C19.5391 19.2167 19.7624 19.3933 19.9757 19.5C20.1957 19.6133 20.4191 19.67 20.6457 19.67C21.1391 19.67 21.5657 19.47 21.9257 19.07L22.3957 19.64ZM15.6157 15.5C15.6157 16.0067 15.7324 16.4667 15.9657 16.88C16.2057 17.2867 16.5324 17.6067 16.9457 17.84C17.3657 18.0733 17.8324 18.19 18.3457 18.19C18.8524 18.19 19.3124 18.0733 19.7257 17.84C20.1391 17.6067 20.4624 17.2867 20.6957 16.88C20.9357 16.4667 21.0557 16.0067 21.0557 15.5C21.0557 14.9933 20.9357 14.5367 20.6957 14.13C20.4624 13.7167 20.1391 13.3933 19.7257 13.16C19.3124 12.9267 18.8524 12.81 18.3457 12.81C17.8324 12.81 17.3657 12.9267 16.9457 13.16C16.5324 13.3933 16.2057 13.7167 15.9657 14.13C15.7324 14.5367 15.6157 14.9933 15.6157 15.5Z" fill="#1A1C20"/>
</svg>