<svg width="30" height="30" viewBox="0 0 30 30" fill="none" xmlns="http://www.w3.org/2000/svg">
<rect width="30" height="30" fill="#F4F4F4"/>
<path d="M10.1761 19L8.66615 16.85C8.47948 16.8633 8.33282 16.87 8.22615 16.87H6.49615V19H5.49615V12H8.22615C9.13282 12 9.84615 12.2167 10.3661 12.65C10.8861 13.0833 11.1461 13.68 11.1461 14.44C11.1461 14.98 11.0128 15.44 10.7462 15.82C10.4795 16.2 10.0995 16.4767 9.60615 16.65L11.2662 19H10.1761ZM8.19615 16.02C8.82948 16.02 9.31282 15.8833 9.64615 15.61C9.97948 15.3367 10.1462 14.9467 10.1462 14.44C10.1462 13.9333 9.97948 13.5467 9.64615 13.28C9.31282 13.0067 8.82948 12.87 8.19615 12.87H6.49615V16.02H8.19615ZM17.5618 13.7V19H16.6518V18.2C16.4584 18.4733 16.2018 18.6867 15.8818 18.84C15.5684 18.9867 15.2251 19.06 14.8518 19.06C14.1451 19.06 13.5884 18.8667 13.1818 18.48C12.7751 18.0867 12.5718 17.51 12.5718 16.75V13.7H13.5318V16.64C13.5318 17.1533 13.6551 17.5433 13.9018 17.81C14.1484 18.07 14.5018 18.2 14.9618 18.2C15.4684 18.2 15.8684 18.0467 16.1618 17.74C16.4551 17.4333 16.6018 17 16.6018 16.44V13.7H17.5618ZM22.2194 13.65C22.8927 13.65 23.426 13.8467 23.8194 14.24C24.2194 14.6267 24.4194 15.1967 24.4194 15.95V19H23.4594V16.06C23.4594 15.5467 23.336 15.16 23.0894 14.9C22.8427 14.64 22.4894 14.51 22.0294 14.51C21.5094 14.51 21.0994 14.6633 20.7994 14.97C20.4994 15.27 20.3494 15.7033 20.3494 16.27V19H19.3894V13.7H20.3094V14.5C20.5027 14.2267 20.7627 14.0167 21.0894 13.87C21.4227 13.7233 21.7994 13.65 22.2194 13.65Z" fill="#1A1C20"/>
</svg>
