<svg width="40" height="40" viewBox="0 0 40 40" fill="none" xmlns="http://www.w3.org/2000/svg">
<rect width="40" height="40" fill="#1A1C20"/>
<rect width="30" height="30" transform="translate(5 5)" fill="#F0A500"/>
<path d="M15.1761 24L13.6662 21.85C13.4795 21.8633 13.3328 21.87 13.2262 21.87H11.4961V24H10.4961V17H13.2262C14.1328 17 14.8461 17.2167 15.3661 17.65C15.8861 18.0833 16.1461 18.68 16.1461 19.44C16.1461 19.98 16.0128 20.44 15.7462 20.82C15.4795 21.2 15.0995 21.4767 14.6062 21.65L16.2662 24H15.1761ZM13.1962 21.02C13.8295 21.02 14.3128 20.8833 14.6462 20.61C14.9795 20.3367 15.1462 19.9467 15.1462 19.44C15.1462 18.9333 14.9795 18.5467 14.6462 18.28C14.3128 18.0067 13.8295 17.87 13.1962 17.87H11.4961V21.02H13.1962ZM22.5618 18.7V24H21.6518V23.2C21.4584 23.4733 21.2018 23.6867 20.8818 23.84C20.5684 23.9867 20.2251 24.06 19.8518 24.06C19.1451 24.06 18.5884 23.8667 18.1818 23.48C17.7751 23.0867 17.5718 22.51 17.5718 21.75V18.7H18.5318V21.64C18.5318 22.1533 18.6551 22.5433 18.9018 22.81C19.1484 23.07 19.5018 23.2 19.9618 23.2C20.4684 23.2 20.8684 23.0467 21.1618 22.74C21.4551 22.4333 21.6018 22 21.6018 21.44V18.7H22.5618ZM27.2194 18.65C27.8927 18.65 28.426 18.8467 28.8194 19.24C29.2194 19.6267 29.4194 20.1967 29.4194 20.95V24H28.4594V21.06C28.4594 20.5467 28.336 20.16 28.0894 19.9C27.8427 19.64 27.4894 19.51 27.0294 19.51C26.5094 19.51 26.0994 19.6633 25.7994 19.97C25.4994 20.27 25.3494 20.7033 25.3494 21.27V24H24.3894V18.7H25.3094V19.5C25.5027 19.2267 25.7627 19.0167 26.0894 18.87C26.4227 18.7233 26.7994 18.65 27.2194 18.65Z" fill="#1A1C20"/>
</svg>

