<svg width="24" height="24" viewBox="0 0 24 24" fill="none" xmlns="http://www.w3.org/2000/svg">
<path d="M8.97085 2.04281C5.15498 2.04281 2.04285 5.13915 2.04285 8.93547C2.04285 12.7319 5.15507 15.8281 8.97085 15.8281C10.5339 15.8281 11.9742 15.3026 13.1356 14.4282C13.1583 14.4561 13.1825 14.4827 13.2081 14.5078L20.3922 21.6553C20.4811 21.7474 20.5875 21.821 20.7053 21.8717C20.8231 21.9224 20.9499 21.9492 21.0782 21.9505C21.2066 21.9518 21.3339 21.9277 21.4527 21.8794C21.5716 21.8312 21.6795 21.7598 21.7703 21.6695C21.861 21.5792 21.9328 21.4718 21.9813 21.3536C22.0298 21.2353 22.0541 21.1087 22.0527 20.981C22.0514 20.8533 22.0244 20.7272 21.9735 20.61C21.9225 20.4928 21.8486 20.3869 21.756 20.2985L14.5719 13.151C14.5466 13.1255 14.5199 13.1014 14.4918 13.0789C15.3707 11.9235 15.8989 10.4905 15.8989 8.93539C15.8989 5.13898 12.7867 2.04272 8.97094 2.04272L8.97085 2.04281ZM8.97085 3.76504C11.8512 3.76504 14.1677 6.06988 14.1677 8.93537C14.1677 11.8011 11.851 14.1057 8.97085 14.1057C6.09067 14.1057 3.774 11.8009 3.774 8.93537C3.774 6.06969 6.09067 3.76504 8.97085 3.76504Z" fill="#F4F4F4"/>
</svg>
