 <svg width="30" height="30" viewBox="0 0 30 30" fill="none" xmlns="http://www.w3.org/2000/svg">
                <path
                    d="M11.2137 2.55354C6.44387 2.55354 2.55371 6.42397 2.55371 11.1694C2.55371 15.9149 6.44399 19.7852 11.2137 19.7852C13.1675 19.7852 14.968 19.1283 16.4197 18.0353C16.448 18.0701 16.4783 18.1034 16.5103 18.1348L25.4904 27.0691C25.6015 27.1843 25.7345 27.2763 25.8818 27.3396C26.029 27.403 26.1875 27.4365 26.3479 27.4382C26.5084 27.4398 26.6675 27.4096 26.8161 27.3493C26.9646 27.289 27.0995 27.1998 27.213 27.0869C27.3264 26.974 27.4161 26.8398 27.4767 26.692C27.5373 26.5442 27.5677 26.3859 27.5661 26.2263C27.5644 26.0667 27.5307 25.909 27.467 25.7625C27.4033 25.616 27.3109 25.4836 27.1951 25.3731L18.215 16.4388C18.1834 16.4069 18.15 16.3768 18.1149 16.3487C19.2135 14.9043 19.8738 13.1131 19.8738 11.1693C19.8738 6.42375 15.9836 2.55344 11.2138 2.55344L11.2137 2.55354ZM11.2137 4.70633C14.8142 4.70633 17.7098 7.58738 17.7098 11.1692C17.7098 14.7513 14.8139 17.6322 11.2137 17.6322C7.61349 17.6322 4.71766 14.7511 4.71766 11.1692C4.71766 7.58714 7.61349 4.70633 11.2137 4.70633Z"
                    fill="#1A1C20" />
            </svg>