<svg width="20" height="20" viewBox="0 0 20 20" fill="none" xmlns="http://www.w3.org/2000/svg">
    <path d="M9.66692 7.96883C9.88566 8.62047 9.99841 9.30432 9.99989 9.98845C10.0014 10.6713 9.89203 11.3542 9.67695 12.0056L11.1081 13.7175C11.6945 12.5595 12.0019 11.2741 11.9999 9.98845C11.9979 8.70452 11.6874 7.42187 11.0989 6.2668L9.66694 7.96883H9.66692ZM7.99994 0.461049L2.375 7.13024H0V12.8467H2.375L7.99994 19.5159V0.461419V0.461049ZM13.7687 3.08149L12.4609 4.64458C13.4595 6.25359 13.9968 8.11959 13.9999 9.98882C14.003 11.8643 13.4682 13.7382 12.4687 15.3539L13.7843 16.9185C15.2222 14.8865 16.0045 12.4395 15.9999 9.98882C15.9953 7.54409 15.2076 5.10563 13.7687 3.08149ZM16.3593 0L15.0812 1.52587C16.9612 3.95721 17.9999 6.96905 17.9999 9.98882C17.9999 13.0087 16.9612 16.0205 15.0812 18.4518L16.3672 20C18.7021 17.173 20.0037 13.5861 20 9.98919C19.9963 6.39844 18.6922 2.82052 16.3594 0.000553953" fill="#F4F4F4"/>
</svg>