<svg width="50" height="50" viewBox="0 0 50 50" fill="none" xmlns="http://www.w3.org/2000/svg">
<g clip-path="url(#clip0)">
<path d="M25.8813 9.59991C25.55 9.53533 25.1 9.50408 24.5333 9.50408C24.0792 9.50408 23.6438 9.54783 23.225 9.63324C22.8063 9.72074 22.4375 9.85824 22.1208 10.0437C21.7979 10.2291 21.5417 10.4916 21.3542 10.8291C21.1583 11.1645 21.0625 11.5832 21.0625 12.0812C21.0625 12.7916 21.3021 13.377 21.7771 13.8416C22.2542 14.3062 22.8438 14.7187 23.5458 15.0791C24.2479 15.4395 25.0146 15.777 25.8458 16.0978C26.675 16.4166 27.4438 16.7916 28.1458 17.2207C28.8479 17.652 29.4354 18.1812 29.9146 18.8082C30.3917 19.4353 30.6292 20.2249 30.6292 21.1791C30.6292 22.2249 30.4292 23.102 30.0375 23.8187C29.6417 24.5312 29.1146 25.1041 28.4521 25.5332C27.7917 25.9645 27.0333 26.2666 26.1875 26.4374C25.3375 26.6145 24.4667 26.6999 23.5729 26.6999C22.4 26.6999 21.2667 26.5832 20.1729 26.352C19.0833 26.1207 18.1521 25.8353 17.3875 25.4978V20.7062L19.2521 20.3937L20.2104 23.9312C20.825 24.1874 21.3729 24.3874 21.8458 24.5312C22.3229 24.677 22.9104 24.7478 23.6083 24.7478C24.6771 24.7478 25.55 24.5103 26.2313 24.0353C26.9104 23.5582 27.2604 22.7853 27.2854 21.7166C27.3083 21.0207 27.0875 20.4541 26.625 20.0187C26.1583 19.5853 25.5688 19.1916 24.8542 18.8437C24.1396 18.4957 23.375 18.1687 22.5542 17.8582C21.7354 17.552 20.9708 17.1707 20.2563 16.7166C19.5396 16.2645 18.9438 15.7187 18.4688 15.0791C17.9938 14.4395 17.7521 13.6207 17.7521 12.6228C17.7521 11.6937 17.9792 10.9062 18.4333 10.2624C18.8875 9.61658 19.4667 9.09158 20.175 8.68533C20.8854 8.28116 21.6854 7.98949 22.5813 7.81449C23.475 7.64158 25.0542 7.55408 25.9146 7.55408" fill="#EA7600"/>
<path d="M25.0917 13.8562C25.8304 13.8562 26.4292 13.4448 26.4292 12.9374C26.4292 12.43 25.8304 12.0187 25.0917 12.0187C24.353 12.0187 23.7542 12.43 23.7542 12.9374C23.7542 13.4448 24.353 13.8562 25.0917 13.8562Z" fill="#1A1C20"/>
<path fill-rule="evenodd" clip-rule="evenodd" d="M26.3917 13.1958C26.3917 13.2812 26.3271 13.3499 26.2417 13.352C26.1583 13.352 26.0896 13.2833 26.0896 13.1999L26.0583 7.74577C26.0583 7.66035 26.1271 7.5916 26.2125 7.5916C26.2937 7.58952 26.3625 7.65827 26.3625 7.74368L26.3917 13.1958Z" fill="#1A1C20"/>
<path d="M26.2021 7.552C26.2021 7.552 26.2729 7.5645 26.3958 7.58534C26.4646 7.59784 26.5896 7.62284 26.7042 7.652C26.8187 7.6895 26.9458 7.73117 27.0854 7.80409C27.2229 7.87492 27.3687 7.977 27.4979 8.11034C27.6271 8.24367 27.725 8.40617 27.7979 8.57283C27.9312 8.90825 27.95 9.23534 27.9479 9.53325C27.9458 9.83117 27.9229 10.1103 27.925 10.3603C27.925 10.6103 27.9562 10.8353 28.0479 10.9895C28.0917 11.0708 28.1583 11.1249 28.2208 11.1728C28.2562 11.1937 28.2896 11.2124 28.3208 11.2291C28.3542 11.2416 28.3833 11.252 28.4125 11.2624C28.4687 11.2853 28.5167 11.2874 28.5479 11.2958C28.5792 11.3041 28.5979 11.3062 28.5979 11.3062C28.5979 11.3062 28.5792 11.3062 28.5479 11.3103C28.5146 11.3103 28.4667 11.3228 28.4021 11.3187C28.3708 11.3187 28.3354 11.3166 28.2958 11.3124C28.2562 11.3062 28.2146 11.2958 28.1687 11.2874C28.0812 11.2562 27.975 11.2083 27.8896 11.1249C27.7979 11.0437 27.7208 10.9353 27.6625 10.8145C27.6 10.6937 27.5521 10.5645 27.5104 10.4291C27.4292 10.1603 27.3687 9.877 27.2937 9.62075C27.2562 9.49159 27.2125 9.37284 27.1646 9.2645C27.1167 9.15825 27.0583 9.07284 27.0021 9.00409C26.9437 8.94159 26.8875 8.89992 26.8333 8.877C26.7792 8.85409 26.7229 8.84159 26.6667 8.83534C26.6083 8.82909 26.5479 8.83117 26.4979 8.83117C26.4437 8.8395 26.4187 8.84367 26.3667 8.84784C26.2437 8.8645 26.175 8.87284 26.175 8.87284L26.2021 7.552Z" fill="#1A1C20"/>
<path d="M8.40673 33.548C8.09073 33.548 7.78473 33.5 7.48873 33.404C7.19673 33.304 6.96673 33.176 6.79873 33.02L7.02073 32.552C7.18073 32.696 7.38473 32.814 7.63273 32.906C7.88473 32.994 8.14273 33.038 8.40673 33.038C8.75473 33.038 9.01473 32.98 9.18673 32.864C9.35873 32.744 9.44473 32.586 9.44473 32.39C9.44473 32.246 9.39673 32.13 9.30073 32.042C9.20873 31.95 9.09273 31.88 8.95273 31.832C8.81673 31.784 8.62273 31.73 8.37073 31.67C8.05473 31.594 7.79873 31.518 7.60273 31.442C7.41073 31.366 7.24473 31.25 7.10473 31.094C6.96873 30.934 6.90073 30.72 6.90073 30.452C6.90073 30.228 6.95873 30.026 7.07473 29.846C7.19473 29.666 7.37473 29.522 7.61473 29.414C7.85473 29.306 8.15273 29.252 8.50873 29.252C8.75673 29.252 9.00073 29.284 9.24073 29.348C9.48073 29.412 9.68673 29.504 9.85873 29.624L9.66073 30.104C9.48473 29.992 9.29673 29.908 9.09673 29.852C8.89673 29.792 8.70073 29.762 8.50873 29.762C8.16873 29.762 7.91273 29.824 7.74073 29.948C7.57273 30.072 7.48873 30.232 7.48873 30.428C7.48873 30.572 7.53673 30.69 7.63273 30.782C7.72873 30.87 7.84673 30.94 7.98673 30.992C8.13073 31.04 8.32473 31.092 8.56873 31.148C8.88473 31.224 9.13873 31.3 9.33073 31.376C9.52273 31.452 9.68673 31.568 9.82273 31.724C9.96273 31.88 10.0327 32.09 10.0327 32.354C10.0327 32.574 9.97273 32.776 9.85273 32.96C9.73273 33.14 9.55073 33.284 9.30673 33.392C9.06273 33.496 8.76273 33.548 8.40673 33.548ZM12.5473 29.3C13.0913 29.3 13.5193 29.43 13.8313 29.69C14.1433 29.95 14.2993 30.308 14.2993 30.764C14.2993 31.22 14.1433 31.578 13.8313 31.838C13.5193 32.098 13.0913 32.228 12.5473 32.228H11.5093V33.5H10.9093V29.3H12.5473ZM12.5293 31.706C12.9093 31.706 13.1993 31.626 13.3993 31.466C13.5993 31.302 13.6993 31.068 13.6993 30.764C13.6993 30.46 13.5993 30.228 13.3993 30.068C13.1993 29.904 12.9093 29.822 12.5293 29.822H11.5093V31.706H12.5293ZM17.1354 33.548C16.7114 33.548 16.3294 33.456 15.9894 33.272C15.6494 33.084 15.3814 32.826 15.1854 32.498C14.9934 32.17 14.8974 31.804 14.8974 31.4C14.8974 30.996 14.9934 30.63 15.1854 30.302C15.3814 29.974 15.6494 29.718 15.9894 29.534C16.3294 29.346 16.7114 29.252 17.1354 29.252C17.5554 29.252 17.9354 29.346 18.2754 29.534C18.6154 29.718 18.8814 29.974 19.0734 30.302C19.2654 30.626 19.3614 30.992 19.3614 31.4C19.3614 31.808 19.2654 32.176 19.0734 32.504C18.8814 32.828 18.6154 33.084 18.2754 33.272C17.9354 33.456 17.5554 33.548 17.1354 33.548ZM17.1354 33.014C17.4434 33.014 17.7194 32.944 17.9634 32.804C18.2114 32.664 18.4054 32.472 18.5454 32.228C18.6894 31.98 18.7614 31.704 18.7614 31.4C18.7614 31.096 18.6894 30.822 18.5454 30.578C18.4054 30.33 18.2114 30.136 17.9634 29.996C17.7194 29.856 17.4434 29.786 17.1354 29.786C16.8274 29.786 16.5474 29.856 16.2954 29.996C16.0474 30.136 15.8514 30.33 15.7074 30.578C15.5674 30.822 15.4974 31.096 15.4974 31.4C15.4974 31.704 15.5674 31.98 15.7074 32.228C15.8514 32.472 16.0474 32.664 16.2954 32.804C16.5474 32.944 16.8274 33.014 17.1354 33.014ZM20.2784 29.3H20.8784V33.5H20.2784V29.3ZM22.1359 29.3H22.7359V32.978H25.0099V33.5H22.1359V29.3ZM28.7464 32.978V33.5H25.6984V29.3H28.6624V29.822H26.2984V31.112H28.4044V31.622H26.2984V32.978H28.7464ZM32.5259 33.5L31.6199 32.21C31.5079 32.218 31.4199 32.222 31.3559 32.222H30.3179V33.5H29.7179V29.3H31.3559C31.8999 29.3 32.3279 29.43 32.6399 29.69C32.9519 29.95 33.1079 30.308 33.1079 30.764C33.1079 31.088 33.0279 31.364 32.8679 31.592C32.7079 31.82 32.4799 31.986 32.1839 32.09L33.1799 33.5H32.5259ZM31.3379 31.712C31.7179 31.712 32.0079 31.63 32.2079 31.466C32.4079 31.302 32.5079 31.068 32.5079 30.764C32.5079 30.46 32.4079 30.228 32.2079 30.068C32.0079 29.904 31.7179 29.822 31.3379 29.822H30.3179V31.712H31.3379Z" fill="#1A1C20"/>
<path d="M41.472 33.106C42.872 33.106 43.8987 33.372 44.552 33.904C45.2147 34.4267 45.546 35.1453 45.546 36.06C45.546 36.6387 45.406 37.1613 45.126 37.628C44.8553 38.0853 44.44 38.4493 43.88 38.72C43.3293 38.9813 42.648 39.112 41.836 39.112C41.1453 39.112 40.478 39.0093 39.834 38.804C39.19 38.5893 38.658 38.2953 38.238 37.922L38.882 36.816C39.218 37.1333 39.6473 37.39 40.17 37.586C40.6927 37.7727 41.2433 37.866 41.822 37.866C42.5593 37.866 43.1287 37.712 43.53 37.404C43.9407 37.0867 44.146 36.6573 44.146 36.116C44.146 35.528 43.922 35.0847 43.474 34.786C43.026 34.478 42.2607 34.324 41.178 34.324H38.952L39.47 29.2H45V30.418H40.646L40.38 33.106H41.472Z" fill="#1A1C20"/>
<path d="M35.1438 43.5395C34.1875 43.5395 33.9021 42.7437 33.3875 40.6353C33.1896 39.8166 32.8646 38.4957 32.4959 38.1645C32.125 38.4937 31.8042 39.8166 31.6042 40.6353C31.0896 42.7437 30.8042 43.5395 29.848 43.5395C28.8917 43.5395 28.6063 42.7437 28.0938 40.6353C27.8938 39.8166 27.5709 38.4957 27.2 38.1645C26.8292 38.4937 26.5084 39.8166 26.3063 40.6353C25.7938 42.7437 25.5084 43.5395 24.5542 43.5395C23.6 43.5395 23.3125 42.7437 22.8 40.6353C22.6021 39.8166 22.2792 38.4978 21.9084 38.1645C21.5396 38.4957 21.2146 39.8166 21.0167 40.6353C20.5021 42.7437 20.2188 43.5395 19.2625 43.5395C18.3084 43.5395 18.023 42.7437 17.5084 40.6353C17.3084 39.8166 16.9855 38.4957 16.6167 38.1645C16.248 38.4937 15.925 39.8166 15.725 40.6353C15.2105 42.7437 14.9271 43.5395 13.9709 43.5395C13.0146 43.5395 12.7313 42.7437 12.2167 40.6353C12.0188 39.8166 11.6959 38.4978 11.325 38.1645C10.9563 38.4957 10.6334 39.8166 10.4334 40.6353C9.91879 42.7437 9.63545 43.5395 8.6792 43.5395C7.72295 43.5395 7.43962 42.7437 6.92504 40.6353C6.71254 39.7666 6.36045 38.3228 5.96254 38.1124C5.75629 38.0957 5.60004 38.0041 5.60004 37.8957C5.60004 37.7749 5.79587 37.6791 6.03337 37.6791C6.98962 37.6791 7.27504 38.4749 7.78962 40.5832C7.98962 41.3999 8.31045 42.7207 8.68129 43.0562C9.05004 42.7228 9.37504 41.3999 9.57087 40.5832C10.0855 38.4728 10.3709 37.6791 11.325 37.6791C12.2813 37.6791 12.5667 38.4728 13.0792 40.5832C13.2771 41.3999 13.6 42.7207 13.9709 43.0562C14.3396 42.7228 14.6625 41.3999 14.8625 40.5832C15.3771 38.4749 15.6625 37.6791 16.6167 37.6791C17.5709 37.6791 17.8584 38.4749 18.3688 40.5832C18.5688 41.3999 18.8917 42.7207 19.2625 43.0562C19.6334 42.7228 19.9563 41.3999 20.1542 40.5832C20.6688 38.4728 20.9521 37.6791 21.9084 37.6791C22.8646 37.6791 23.15 38.4728 23.6625 40.5832C23.8605 41.3999 24.1855 42.7207 24.5542 43.0562C24.923 42.7228 25.248 41.3999 25.4459 40.5832C25.9605 38.4728 26.2459 37.6791 27.2 37.6791C28.1563 37.6791 28.4396 38.4728 28.9563 40.5832C29.1542 41.3999 29.4792 42.7207 29.848 43.0562C30.2167 42.7228 30.5417 41.3999 30.7396 40.5832C31.2563 38.4728 31.5417 37.6791 32.4959 37.6791C33.4521 37.6791 33.7375 38.4728 34.25 40.5832C34.4646 41.452 34.8146 42.8937 35.2146 43.1062C35.423 43.1228 35.5792 43.2124 35.5792 43.3207C35.5792 43.4416 35.3834 43.5395 35.1438 43.5395Z" fill="#EA7600"/>
<path d="M5.61669 38.7854C6.40485 38.7854 7.04377 38.4636 7.04377 38.0666C7.04377 37.6697 6.40485 37.3479 5.61669 37.3479C4.82853 37.3479 4.18961 37.6697 4.18961 38.0666C4.18961 38.4636 4.82853 38.7854 5.61669 38.7854Z" fill="#F0A500"/>
<path d="M35.2063 43.8854C35.9944 43.8854 36.6333 43.5636 36.6333 43.1666C36.6333 42.7697 35.9944 42.4479 35.2063 42.4479C34.4181 42.4479 33.7792 42.7697 33.7792 43.1666C33.7792 43.5636 34.4181 43.8854 35.2063 43.8854Z" fill="#F0A500"/>
<path d="M9.00418 23.9374L9.4146 12.7145C9.4146 7.94577 14.925 4.0791 21.7208 4.0791H26.4375C33.2375 4.0791 38.7458 7.94577 38.7458 12.7145L39.1563 23.9374" stroke="#1A1C20" stroke-width="0.5061" stroke-miterlimit="10" stroke-linecap="round" stroke-linejoin="round"/>
<path d="M9.00419 23.9374C9.00419 23.9374 8.89794 22.9895 8.81044 21.3354C8.73335 19.6833 8.55419 17.3187 8.5021 14.4895C8.49169 13.7645 8.43752 13.0749 8.47085 12.2458C8.46044 11.8979 8.52919 11.427 8.62919 10.9333C8.72711 10.4541 8.88335 10.0395 9.0521 9.59577C9.78752 7.8666 11.1354 6.3791 12.7625 5.31452C14.3792 4.22285 16.2542 3.4541 18.225 3.08535C20.2104 2.6666 22.2563 2.72077 24.0813 2.7041C25.9479 2.72702 27.9063 2.66243 29.9375 3.08535C31.9084 3.4541 33.7813 4.22285 35.3979 5.31244C37.025 6.37494 38.3771 7.86244 39.1104 9.5916C39.4521 10.4604 39.6938 11.3624 39.6917 12.2499C39.7271 13.0666 39.675 13.7666 39.6604 14.4854C39.6084 17.3166 39.4292 19.6812 39.3521 21.3333C39.2625 22.9874 39.1563 23.9354 39.1563 23.9354C39.1563 23.9354 38.9813 22.9979 38.7688 21.3562C38.5709 19.7124 38.2209 17.3687 37.9604 14.5479C37.8896 13.852 37.8167 13.127 37.7417 12.377C37.6979 11.7354 37.4563 11.1041 37.1667 10.4916C36.5104 9.28744 35.4354 8.18952 34.0688 7.3791C32.7146 6.55202 31.1104 6.0041 29.4334 5.69577C27.8146 5.37285 25.975 5.43535 24.0792 5.44993C22.1417 5.4416 20.3896 5.36869 18.725 5.69577C17.0521 6.00827 15.4479 6.55618 14.0917 7.38327C12.725 8.19369 11.65 9.28952 10.9917 10.4937C10.85 10.7937 10.6959 11.1249 10.6146 11.4104C10.5334 11.6812 10.4396 11.9687 10.4146 12.3854C10.3396 13.1333 10.2646 13.8562 10.1959 14.5499C9.93544 17.3708 9.58544 19.7145 9.3896 21.3583C9.17919 23.002 9.00419 23.9374 9.00419 23.9374Z" fill="#CF7500"/>
<path fill-rule="evenodd" clip-rule="evenodd" d="M8.08128 22.6332C8.08128 23.5874 6.9792 24.3603 5.61878 24.3603C4.25836 24.3603 3.15628 23.5874 3.15628 22.6332V19.7541C3.15628 18.7999 4.25836 18.027 5.61878 18.027C6.97711 18.027 8.08128 18.7999 8.08128 19.7541V22.6332Z" fill="#EA7600"/>
<path fill-rule="evenodd" clip-rule="evenodd" d="M11.7709 24.9834C11.7709 26.1771 10.3917 27.1438 8.69378 27.1438C6.99587 27.1438 5.6167 26.1771 5.6167 24.9834V17.4042C5.6167 16.2125 6.99378 15.2458 8.69378 15.2458C10.3917 15.2458 11.7709 16.2125 11.7709 17.4042V24.9834Z" fill="#F0A500" stroke="#CF7500" stroke-width="0.165" stroke-miterlimit="10" stroke-linecap="round" stroke-linejoin="round"/>
<path fill-rule="evenodd" clip-rule="evenodd" d="M40.0813 22.6332C40.0813 23.5874 41.1813 24.3603 42.5438 24.3603C43.9 24.3603 45.0063 23.5874 45.0063 22.6332V19.7541C45.0063 18.7999 43.9021 18.027 42.5438 18.027C41.1834 18.027 40.0813 18.7999 40.0813 19.7541V22.6332Z" fill="#EA7600"/>
<path fill-rule="evenodd" clip-rule="evenodd" d="M36.3875 24.9834C36.3875 26.1771 37.7646 27.1438 39.4667 27.1438C41.1646 27.1438 42.5438 26.1771 42.5438 24.9834V17.4042C42.5438 16.2125 41.1667 15.2458 39.4667 15.2458C37.7667 15.2458 36.3875 16.2125 36.3875 17.4042V24.9834Z" fill="#F0A500" stroke="#CF7500" stroke-width="0.165" stroke-miterlimit="10" stroke-linecap="round" stroke-linejoin="round"/>
<path d="M44.6188 21.8416C44.6188 22 44.4813 22.1312 44.3125 22.1312C44.1417 22.1312 44.0042 22 44.0042 21.8416V20.6375C44.0042 20.4791 44.1417 20.35 44.3125 20.35C44.4813 20.35 44.6188 20.4791 44.6188 20.6375V21.8416Z" fill="#1A1C20"/>
<path d="M43.2375 21.8416C43.2375 22 43.1021 22.1312 42.9334 22.1312C42.7625 22.1312 42.625 22 42.625 21.8416V20.6375C42.625 20.4791 42.7625 20.35 42.9334 20.35C43.1021 20.35 43.2375 20.4791 43.2375 20.6375V21.8416Z" fill="#1A1C20"/>
<path d="M41.9042 22.1916C41.9042 22.4437 41.7688 22.6478 41.5979 22.6478C41.4313 22.6478 41.2938 22.4437 41.2938 22.1916V20.2895C41.2938 20.0353 41.4313 19.8333 41.5979 19.8333C41.7688 19.8333 41.9042 20.0374 41.9042 20.2895V22.1916Z" fill="#1A1C20"/>
<path d="M40.6584 22.3999C40.6584 22.7062 40.5229 22.9562 40.3521 22.9562C40.1813 22.9562 40.0479 22.7062 40.0479 22.3999V20.0791C40.0479 19.7728 40.1813 19.5228 40.3521 19.5228C40.5229 19.5228 40.6584 19.7728 40.6584 20.0791V22.3999Z" fill="#1A1C20"/>
<path d="M39.4979 23.0229C39.4979 23.4958 39.2854 23.877 39.0271 23.877C38.7688 23.877 38.5563 23.4937 38.5563 23.0229V19.4583C38.5563 18.9875 38.7688 18.6041 39.0271 18.6041C39.2854 18.6041 39.4979 18.9875 39.4979 19.4583V23.0229Z" fill="#1A1C20"/>
<path d="M38.0646 24.2624C38.0646 25.0624 37.8688 25.7103 37.6334 25.7103C37.3938 25.7103 37.1979 25.0624 37.1979 24.2624V18.2187C37.1979 17.4208 37.3938 16.7708 37.6334 16.7708C37.8688 16.7708 38.0646 17.4208 38.0646 18.2187V24.2624Z" fill="#1A1C20"/>
<path d="M3.52502 21.8416C3.52502 22 3.66252 22.1312 3.83127 22.1312C4.00211 22.1312 4.13544 22 4.13544 21.8416V20.6375C4.13544 20.4791 4.00002 20.35 3.83127 20.35C3.66044 20.35 3.52502 20.4791 3.52502 20.6375V21.8416Z" fill="#1A1C20"/>
<path d="M4.90417 21.8416C4.90417 22 5.04167 22.1312 5.21042 22.1312C5.37917 22.1312 5.51459 22 5.51459 21.8416V20.6375C5.51459 20.4791 5.37917 20.35 5.21042 20.35C5.03959 20.35 4.90417 20.4791 4.90417 20.6375V21.8416Z" fill="#1A1C20"/>
<path d="M6.23544 22.1916C6.23544 22.4437 6.37294 22.6478 6.54169 22.6478C6.71253 22.6478 6.84794 22.4437 6.84794 22.1916V20.2895C6.84794 20.0353 6.71253 19.8333 6.54169 19.8333C6.37086 19.8333 6.23544 20.0374 6.23544 20.2895V22.1916Z" fill="#1A1C20"/>
<path d="M7.48334 22.3999C7.48334 22.7062 7.62084 22.9562 7.78959 22.9562C7.96042 22.9562 8.09584 22.7062 8.09584 22.3999V20.0791C8.09584 19.7728 7.95834 19.5228 7.78959 19.5228C7.62084 19.5228 7.48334 19.7728 7.48334 20.0791V22.3999Z" fill="#1A1C20"/>
<path d="M8.64169 23.0229C8.64169 23.4958 8.85419 23.877 9.11253 23.877C9.37294 23.877 9.58544 23.4937 9.58544 23.0229V19.4583C9.58544 18.9875 9.37294 18.6041 9.11253 18.6041C8.85211 18.6041 8.64169 18.9875 8.64169 19.4583V23.0229Z" fill="#1A1C20"/>
<path d="M10.0771 24.2624C10.0771 25.0624 10.2708 25.7103 10.5104 25.7103C10.75 25.7103 10.9438 25.0624 10.9438 24.2624V18.2187C10.9438 17.4208 10.75 16.7708 10.5104 16.7708C10.2708 16.7708 10.0771 17.4208 10.0771 18.2187V24.2624Z" fill="#1A1C20"/>
</g>
<defs>
<clipPath id="clip0">
<rect width="50" height="50" fill="white"/>
</clipPath>
</defs>
</svg>
