<svg width="24" height="24" viewBox="0 0 24 24" fill="none" xmlns="http://www.w3.org/2000/svg">
                <g clip-path="url(#clip0)">
                    <path
                        d="M12.4745 1.13719C12.1142 1.17713 11.796 1.45774 11.6845 1.84366L11.4662 2.58871L9.84773 1.65742C9.71832 1.58263 9.58354 1.53463 9.44952 1.52254C9.2485 1.5043 9.03614 1.58196 8.90357 1.73451C8.77099 1.88705 8.71733 2.08807 8.71733 2.30619V4.01451L7.07957 3.07678C6.90187 2.97521 6.73637 2.90839 6.54005 2.93547C6.38107 2.95745 6.21893 3.08244 6.16114 3.23729C6.10334 3.39214 6.11438 3.55054 6.16114 3.71259L8.53742 11.9334C8.68632 12.4488 9.1285 12.9684 9.61003 13.2436L14.3306 15.9411C14.4572 16.0134 14.588 16.0664 14.716 16.0824C15.165 16.0579 15.3796 15.8031 15.5765 15.3759L18.3897 5.62644C18.5592 5.03931 18.3208 4.37921 17.7988 4.0722L13.0397 1.27207C12.9072 1.19412 12.7678 1.14881 12.6288 1.13719C12.576 1.13278 12.526 1.13143 12.4745 1.13719ZM12.5773 1.68948C12.6311 1.6939 12.6944 1.71041 12.7571 1.74727L17.5162 4.5474C17.7749 4.69966 17.9442 5.14663 17.8502 5.47227L15.4289 13.8601V9.99377L16.3409 6.84027L15.4289 6.30718V5.85771C15.4289 5.27297 15.0869 4.67911 14.5811 4.38699L11.9671 2.87767L12.224 1.99783C12.2944 1.75419 12.4217 1.67652 12.5773 1.68948ZM9.3468 2.07483C9.35688 2.07051 9.3708 2.07233 9.39816 2.07483C9.43464 2.07809 9.49742 2.09345 9.5652 2.13262L14.2986 4.86219C14.5815 5.02558 14.8766 5.53159 14.8766 5.85771V14.04L13.971 10.9059C14.1754 10.2196 14.1456 9.25841 13.8296 8.23409C13.3006 6.51886 12.1605 5.24945 11.2156 5.26049C11.1527 5.26126 11.0904 5.2674 11.0294 5.27979C11.0068 5.28439 10.9871 5.29275 10.9652 5.29908L9.26971 4.3291V2.30609C9.26971 2.18254 9.30235 2.12215 9.32107 2.10055C9.33048 2.08971 9.33672 2.07915 9.3468 2.07483ZM6.70075 3.51991C6.71621 3.50273 6.76958 3.54161 6.8099 3.56494L11.5304 6.26235C11.8494 6.44455 12.2414 6.93675 12.3268 7.23214L14.7031 15.4594C14.7228 15.5324 14.6285 15.4692 14.6004 15.453L9.87989 12.7555C9.56174 12.5737 9.1619 12.0728 9.07714 11.7793L6.70085 3.55841C6.69605 3.53748 6.69547 3.52567 6.70075 3.51991ZM9.45595 6.74398L9.03211 10.6039L13.4894 13.1731L9.45595 6.74398ZM17.5997 11.0856L17.4199 11.7022L21.89 14.2841C20.7758 14.7658 19.788 14.6618 18.7751 14.8235C18.1965 14.916 17.6123 15.1099 17.0665 15.5686C16.5725 15.984 16.1159 16.6207 15.6793 17.5531C15.0692 17.2565 14.54 17.1689 14.0802 17.2962C13.5478 17.4438 13.1531 17.8307 12.7894 18.2789C12.3722 18.7926 11.9724 19.4015 11.4599 19.9744C11.0709 20.3638 10.6842 20.7434 10.2203 21.0405L2.24357 16.4356C3.33662 15.7751 4.1796 14.7888 5.2236 14.0655C5.67778 13.7455 6.10661 13.5324 6.56587 13.4812C7.03665 13.4285 7.55794 13.5312 8.2165 13.9113L8.50546 14.0847C8.57938 13.9128 8.65915 13.7414 8.73672 13.5709C8.42501 13.4065 8.08613 13.1843 7.77979 13.057C7.33454 12.8723 6.90312 12.8388 6.50174 12.8837C5.88965 12.952 5.34974 13.2311 4.83826 13.5966C3.81547 14.3277 2.85854 15.407 1.51147 16.1849L-0.00427246 17.0905L9.99557 22.8644L14.6135 20.199C14.8104 20.6616 15.5635 20.7628 16.2063 20.3916C16.8483 20.0209 17.1842 19.2894 17.3815 18.5998L24.0031 14.7783L17.5997 11.0856Z"
                        fill="#F4F4F4" />
                </g>
                <defs>
                    <clipPath id="clip0">
                        <rect width="24" height="24" fill="white" />
                    </clipPath>
                </defs>
            </svg>