 <svg width="24" height="24" viewBox="0 0 24 24" fill="none"
                xmlns="http://www.w3.org/2000/svg">
                <path
                    d="M11.9897 4.41052L11.2182 9.59385L12.6553 8.73055L11.9897 4.41052ZM9.5905 11.2128L4.41071 12.009L8.76957 12.6586L9.5905 11.2128ZM15.2293 11.3399L14.4084 12.7875L19.5899 11.9895L15.2293 11.3399ZM12.7824 14.4064L11.3453 15.2697L12.0091 19.5898L12.7824 14.4064Z"
                    fill="#F4F4F4" />
                <path
                    d="M17.9816 5.8811L11.8079 9.58852C11.8726 9.58337 11.9344 9.5691 12.0003 9.5691C13.3413 9.5691 14.4313 10.6591 14.4313 12.0001C14.4313 12.06 14.418 12.116 14.4137 12.1749L17.9816 5.8811ZM12.0003 9.90983C10.844 9.90983 9.91006 10.8438 9.91006 12.0001C9.91006 13.1565 10.844 14.0904 12.0003 14.0904C13.1567 14.0904 14.0906 13.1565 14.0906 12.0001C14.0906 10.8438 13.1567 9.90983 12.0003 9.90983ZM9.58522 11.8289L6.01727 18.1191L12.1928 14.4117C12.1281 14.4168 12.0663 14.4311 12.0003 14.4311C10.6594 14.4311 9.56757 13.3411 9.56757 12.0001C9.56757 11.9414 9.58111 11.8865 9.58522 11.8289L9.58522 11.8289Z"
                    fill="#F4F4F4" />
                <path
                    d="M12 0C8.81755 0 5.76503 1.26439 3.51471 3.51471C1.26439 5.76503 0 8.81755 0 12C0 15.1824 1.26439 18.2349 3.51471 20.4853C5.76503 22.7356 8.81755 24 12 24C15.1824 24 18.235 22.7356 20.4853 20.4853C22.7356 18.2349 24 15.1824 24 12C24 8.81755 22.7356 5.76503 20.4853 3.51471C18.235 1.26439 15.1824 0 12 0ZM12 0.85408C14.9562 0.85408 17.791 2.02827 19.8813 4.11865C21.9717 6.20903 23.1459 9.04374 23.1459 12C23.1459 14.9562 21.9717 17.791 19.8813 19.8813C17.791 21.9717 14.9562 23.1459 12 23.1459C9.04374 23.1459 6.20903 21.9717 4.11865 19.8813C2.02827 17.791 0.85408 14.9562 0.85408 12C0.85408 9.04374 2.02827 6.20903 4.11865 4.11865C6.20903 2.02827 9.04374 0.85408 12 0.85408Z"
                    fill="#F4F4F4" />
                <path
                    d="M11.9994 7.04163C10.6844 7.04163 9.42314 7.56408 8.4933 8.49392C7.56346 9.42375 7.04102 10.6851 7.04102 12C7.04102 13.315 7.56346 14.5763 8.4933 15.5062C9.42314 16.436 10.6844 16.9585 11.9994 16.9585C13.3144 16.9585 14.5757 16.436 15.5056 15.5062C16.4354 14.5763 16.9579 13.315 16.9579 12C16.9579 10.6851 16.4354 9.42375 15.5056 8.49392C14.5757 7.56408 13.3144 7.04163 11.9994 7.04163ZM11.9994 7.39454C13.221 7.39454 14.3923 7.87971 15.256 8.74346C16.1198 9.60721 16.605 10.7785 16.605 12C16.605 13.2216 16.1198 14.3929 15.256 15.2566C14.3923 16.1204 13.221 16.6056 11.9994 16.6056C10.7779 16.6056 9.6066 16.1204 8.74285 15.2566C7.8791 14.3929 7.39392 13.2216 7.39392 12C7.39392 10.7785 7.8791 9.60721 8.74285 8.74346C9.6066 7.87971 10.7779 7.39454 11.9994 7.39454Z"
                    fill="#F4F4F4" />
                <path
                    d="M2.9784 12.1883L3.15802 11.2063H3.53232L3.19997 12.7723H2.80846L2.59873 11.8796L2.39329 12.7723H2.00286L1.66943 11.2063H2.04481L2.22443 12.1883L2.43954 11.2063H2.76006L2.9784 12.1883Z"
                    fill="#F4F4F4" />
                <path
                    d="M22.0083 11.9847C22.0083 12.1374 21.98 12.2726 21.9233 12.3902C21.8667 12.5078 21.786 12.5985 21.6813 12.6623C21.5773 12.7254 21.4587 12.7569 21.3253 12.7569C21.1919 12.7569 21.0736 12.7265 20.9704 12.6655C20.8671 12.6039 20.7864 12.516 20.7283 12.402C20.671 12.288 20.6409 12.1571 20.638 12.0094V11.9212C20.638 11.7678 20.666 11.6326 20.7219 11.5157C20.7785 11.3981 20.8592 11.3074 20.9639 11.2436C21.0693 11.1798 21.1891 11.1479 21.3231 11.1479C21.4558 11.1479 21.5741 11.1794 21.6781 11.2425C21.782 11.3056 21.8627 11.3956 21.9201 11.5125C21.9782 11.6287 22.0076 11.762 22.0083 11.9126V11.9847ZM21.6243 11.9191C21.6243 11.7635 21.5981 11.6455 21.5458 11.5652C21.4942 11.4842 21.4199 11.4437 21.3231 11.4437C21.1338 11.4437 21.0338 11.5856 21.0231 11.8696L21.022 11.9847C21.022 12.1381 21.0474 12.2561 21.0983 12.3385C21.1493 12.421 21.2249 12.4622 21.3253 12.4622C21.4207 12.4622 21.4942 12.4217 21.5458 12.3407C21.5974 12.2597 21.6236 12.1432 21.6243 11.9911V11.9191Z"
                    fill="#F4F4F4" />
                <path
                    d="M12.3227 21.6003C12.3227 21.5451 12.303 21.5021 12.2635 21.4712C12.2248 21.4404 12.1563 21.4085 12.0581 21.3755C11.9599 21.3425 11.8796 21.3106 11.8172 21.2798C11.6142 21.1801 11.5128 21.0432 11.5128 20.8689C11.5128 20.7822 11.5379 20.7058 11.5881 20.6398C11.639 20.5731 11.7107 20.5215 11.8032 20.4849C11.8957 20.4477 11.9997 20.429 12.1151 20.429C12.2277 20.429 12.3284 20.4491 12.4173 20.4892C12.507 20.5294 12.5765 20.5868 12.626 20.6613C12.6755 20.7352 12.7002 20.8198 12.7002 20.9152H12.3238C12.3238 20.8514 12.304 20.8019 12.2646 20.7667C12.2259 20.7316 12.1732 20.714 12.1065 20.714C12.0391 20.714 11.9857 20.7291 11.9462 20.7592C11.9075 20.7886 11.8882 20.8263 11.8882 20.8721C11.8882 20.9123 11.9097 20.9489 11.9527 20.9819C11.9957 21.0141 12.0714 21.0478 12.1796 21.083C12.2879 21.1174 12.3768 21.1547 12.4464 21.1948C12.6156 21.2923 12.7002 21.4268 12.7002 21.5982C12.7002 21.7351 12.6486 21.8427 12.5453 21.9208C12.4421 21.999 12.3005 22.0381 12.1205 22.0381C11.9936 22.0381 11.8785 22.0155 11.7752 21.9703C11.6727 21.9244 11.5952 21.862 11.5429 21.7832C11.4913 21.7036 11.4655 21.6121 11.4655 21.5089H11.8441C11.8441 21.5928 11.8656 21.6548 11.9086 21.695C11.9523 21.7344 12.023 21.7541 12.1205 21.7541C12.1829 21.7541 12.232 21.7409 12.2678 21.7143C12.3044 21.6871 12.3227 21.6491 12.3227 21.6003Z"
                    fill="#F4F4F4" />
                <path
                    d="M12.5951 3.45428H12.2198L11.6648 2.47981V3.45428H11.2872V1.88824H11.6648L12.2187 2.86272V1.88824H12.5951V3.45428Z"
                    fill="#F4F4F4" />
            </svg>