<svg width="20" height="20" viewBox="0 0 20 20" fill="none" xmlns="http://www.w3.org/2000/svg">
<g clip-path="url(#clip0)">
<path d="M9.16668 6.17359V3.25C9.16668 2.5607 8.60598 2 7.91668 2C7.6066 2 7.30715 2.11883 7.0752 2.33449L6.53727 2.83215C4.76727 4.46988 1.80422 7.21078 0.288086 8.73137C0.102539 8.91855 0 9.19117 0 9.5C0 9.80883 0.102539 10.0814 0.288086 10.2691C1.80422 11.7893 4.76727 14.5301 6.53727 16.1679L7.0752 16.6655C7.30715 16.8812 7.6066 17 7.91668 17C8.60598 17 9.16668 16.4393 9.16668 15.75V12.8362C15.1668 12.9204 19.1667 14.8129 19.1667 16.5834C19.1667 16.8137 19.353 17 19.5834 17C19.8137 17 20 16.8137 20 16.5834C20 10.9685 15.1782 6.37703 9.16668 6.17359ZM8.75 12C8.51969 12 8.33332 12.1864 8.33332 12.4167V15.75C8.33332 15.9799 8.14613 16.1667 7.91664 16.1667C7.78969 16.1667 7.69691 16.1056 7.64156 16.0544L7.10363 15.5563C5.33773 13.9226 2.38281 11.1891 0.878906 9.68106C0.856133 9.65828 0.83332 9.59316 0.83332 9.5C0.83332 9.40684 0.856094 9.34172 0.878906 9.31934C2.38281 7.81094 5.33773 5.07738 7.10367 3.44367L7.6416 2.94563C7.69695 2.89434 7.78973 2.83332 7.91668 2.83332C8.14617 2.83332 8.33336 3.02008 8.33336 3.25V6.58332C8.33336 6.81363 8.51973 7 8.75004 7C13.7598 7 17.955 10.2707 18.9454 14.6127C17.1671 13.0551 13.3171 12 8.75 12Z" fill="#F4F4F4"/>
</g>
<defs>
<clipPath id="clip0">
<rect width="20" height="20" fill="white"/>
</clipPath>
</defs>
</svg>