<svg width="30" height="30" viewBox="0 0 30 30" fill="none" xmlns="http://www.w3.org/2000/svg">
<g clip-path="url(#clip0)">
<path d="M0 15C0 6.71573 6.71573 0 15 0C23.2843 0 30 6.71573 30 15C30 23.2843 23.2843 30 15 30C6.71573 30 0 23.2843 0 15Z" fill="#F0A500"/>
<path d="M26.0416 15.1422C26.0416 14.9077 25.9018 14.6959 25.6865 14.6036L7.04761 6.61545C6.83435 6.52405 6.58728 6.56711 6.41743 6.72525C6.24764 6.88338 6.18718 7.12681 6.26319 7.34601L8.96695 15.1421L6.26319 22.9382C6.18945 23.1509 6.24411 23.3862 6.40235 23.5445C6.40727 23.5494 6.4123 23.5542 6.41743 23.559C6.58719 23.7171 6.83432 23.7602 7.04756 23.6688L25.6864 15.6807C25.9019 15.5884 26.0416 15.3766 26.0416 15.1422ZM7.80493 8.215L22.601 14.5562L10.0041 14.5562L7.80493 8.215ZM7.80491 22.0693L10.0041 15.728L22.601 15.7281L7.80491 22.0693Z" fill="#F4F4F4"/>
</g>
<defs>
<clipPath id="clip0">
<path d="M0 15C0 6.71573 6.71573 0 15 0C23.2843 0 30 6.71573 30 15C30 23.2843 23.2843 30 15 30C6.71573 30 0 23.2843 0 15Z" fill="white"/>
</clipPath>
</defs>
</svg>